<?xml version="1.0" ?><svg data-name="Layer 48" height="24" id="Layer_48" viewBox="0 0 24 24" width="24" xmlns="http://www.w3.org/2000/svg"><title/><path d="M19.92816,10.98419A7.99026,7.99026,0,0,1,5.296,16.351l-2.08032.42316A9.99849,9.99849,0,0,0,22,12c0-.33923-.01776-.67432-.0509-1.005Z" style="fill:#4387cc"/><path d="M4.07184,13.01575A7.99028,7.99028,0,0,1,18.704,7.64893l2.08032-.4231A9.99849,9.99849,0,0,0,2,12c0,.33923.01776.67438.0509,1.005Z" style="fill:#4387cc"/><polygon points="16 9 22 3 22 9 16 9" style="fill:#4c9ae8"/><polygon points="8 15 2 21 2 15 8 15" style="fill:#4c9ae8"/><polygon points="16.453 10.871 15.039 9.456 11.336 13.16 9.414 11.238 8 12.653 11.336 16 16.453 10.871" style="fill:#4eba94"/></svg>