<svg viewBox="0 0 398.547 442.438" xml:space="preserve" xmlns="http://www.w3.org/2000/svg"><path d="M375.531 107.023c-5.063 24.352-13.969 51.914-28.773 81.906h23.789v205.508c0 11.031-8.969 20-20 20H153.555l22.633-39.195-10.391-6-26.094 45.195h-11.547l28.984-50.188-10.391-6-32.445 56.188H102.75l35.336-61.188-10.391-6-38.797 67.188H48c-11.031 0-20-8.969-20-20V188.93h132.477c14.461-35.434 30.766-64.734 47.656-88.977H48c-26.516 0-48 21.492-48 48v246.484c0 26.508 21.484 48 48 48h302.547c26.508 0 48-21.492 48-48V147.953c0-17.344-9.227-32.492-23.016-40.93zm-265.383 23.821c7.336 0 13.281 5.953 13.281 13.297 0 7.336-5.945 13.289-13.281 13.289-7.352 0-13.297-5.953-13.297-13.289.001-7.344 5.946-13.297 13.297-13.297zm-48.968 0c7.336 0 13.289 5.953 13.289 13.297 0 7.336-5.953 13.289-13.289 13.289-7.344 0-13.297-5.953-13.297-13.289 0-7.344 5.953-13.297 13.297-13.297zm213.086 142.703C403.18 118.398 360.516 0 360.516 0S236.625 22.242 166.734 211.461l-28.484-2.016c-16.148-.719-27.078 14.641-35.672 29.484-8.555 14.848-36.289 62.902-36.289 62.902l79.797-4.184-8.148 30.02 50.086 28.898 21.922-22.051 36.281 71.203s27.734-48.043 36.313-62.891c8.57-14.852 16.398-32.012 7.711-45.625l-15.985-23.654zM258.5 123.648c7.313-12.688 23.547-17.039 36.227-9.703 12.672 7.324 17.016 23.543 9.695 36.219-7.328 12.68-23.531 17.023-36.227 9.715-12.679-7.32-17.015-23.539-9.695-36.231z" fill="#3992db" class="fill-000000"></path></svg>